<?xml version="1.0" encoding="utf-8"?>
<!-- Generator: Adobe Illustrator 26.2.1, SVG Export Plug-In . SVG Version: 6.00 Build 0)  -->
<svg version="1.1" id="레이어_1" xmlns="http://www.w3.org/2000/svg" xmlns:xlink="http://www.w3.org/1999/xlink" x="0px"
	 y="0px" viewBox="0 0 106.51 56.32" style="enable-background:new 0 0 106.51 56.32;" xml:space="preserve">
<style type="text/css">
	.st0{fill:#263C5D;}
</style>
<g>
	<path class="st0" d="M13.09,0c2.43,0,4.83,0.23,7.18,0.67c2.35,0.45,4.45,1.34,6.31,2.66c1.85,1.32,3.36,3.19,4.52,5.59
		c1.16,2.41,1.75,5.54,1.75,9.4c0,3.49-0.49,6.45-1.47,8.88c-0.98,2.43-2.29,4.42-3.93,5.95c-1.64,1.53-3.53,2.65-5.67,3.33
		c-2.14,0.69-4.35,1.03-6.62,1.03c-0.21,0-0.56,0-1.03,0c-0.48,0-0.98-0.01-1.51-0.04c-0.53-0.03-1.04-0.07-1.55-0.12
		c-0.5-0.05-0.86-0.11-1.07-0.16v19.12H0V0L13.09,0z M13.57,28.63c1.16,0,2.27-0.16,3.33-0.48c1.06-0.32,2-0.86,2.82-1.63
		c0.82-0.77,1.47-1.82,1.94-3.17c0.48-1.35,0.71-3.05,0.71-5.12c0-1.75-0.23-3.23-0.67-4.44c-0.45-1.22-1.06-2.18-1.82-2.9
		c-0.77-0.71-1.65-1.23-2.66-1.55c-1.01-0.32-2.06-0.48-3.17-0.48c-1.64,0-2.95,0-4.05,0l0,19.75H13.57z"/>
	<path class="st0" d="M50.02,35.93c0-6.87,1.37-11.99,4.12-15.35c2.75-3.36,6.58-5.04,11.5-5.04c5.29,0,9.23,1.71,11.82,5.12
		c2.59,3.41,3.89,8.5,3.89,15.27c0,6.93-1.38,12.05-4.13,15.39c-2.75,3.33-6.61,5-11.58,5C55.23,56.32,50.02,49.53,50.02,35.93z
		 M59.77,35.93c0,3.88,0.45,6.87,1.35,8.99c0.9,2.12,2.41,3.18,4.52,3.18c2.01,0,3.5-0.92,4.48-2.75c0.98-1.83,1.47-4.97,1.47-9.42
		c0-3.98-0.45-7-1.35-9.07c-0.9-2.07-2.43-3.1-4.6-3.1c-1.85,0-3.29,0.92-4.32,2.75C60.29,28.35,59.77,31.49,59.77,35.93z"/>
	<g>
		<polygon class="st0" points="36.31,20.87 45.75,15.63 45.75,56.32 36.31,56.32 		"/>
		<circle class="st0" cx="41.03" cy="5.67" r="5.65"/>
	</g>
	<path class="st0" d="M106.51,46.78v9.54H94.66c-3.01,0-5.28-0.96-6.78-2.89c-1.51-1.93-2.26-5.17-2.26-9.72V5.32L95.06,0v15.62h7.3
		v8.02h-7.3v16.21c0,2.51,0.22,4.29,0.67,5.34c0.45,1.05,1.26,1.58,2.42,1.58L106.51,46.78z"/>
</g>
</svg>
