<svg xmlns="http://www.w3.org/2000/svg" xmlns:xlink="http://www.w3.org/1999/xlink" width="48" height="44"><defs><path id="a" d="M0 .83h47.717v20H0z"/><path id="c" d="M.792 1.059h41.316v17.467H.792z"/></defs><g fill="none" fill-rule="evenodd"><g transform="translate(0 5.396)"><mask id="b" fill="#fff"><use xlink:href="#a"/></mask><path fill="#000" d="M47.426 5.033c-.055.129-.115.26-.18.387a9.46 9.46 0 0 1-.237.418c-.042.066-.086.13-.129.194a5.459 5.459 0 0 1-.341.467c-.044.055-.088.11-.135.166a7.19 7.19 0 0 1-.254.287 9.47 9.47 0 0 1-.435.442l-.05.05-.081.074c-.204.19-.418.373-.648.554-.087.068-.178.135-.268.204-.101.074-.203.15-.307.223-.14.098-.28.197-.426.293l-.03.019c-1.874 1.227-4.35 2.257-7.23 3a29.41 29.41 0 0 1-.994.245c-.317.073-.639.143-.967.21l-.4.076a56.233 56.233 0 0 1-1.2.21 51.52 51.52 0 0 1-1.047.154c-.05.005-.098.014-.149.02a48.619 48.619 0 0 1-1.495.166c-.371.035-.745.066-1.123.093l-.267.018c-.433.027-.869.051-1.31.066-.645.023-12.422.557-20.318-6.054C3.12 3.46 0 .829 0 .829l1.665 7.768s4.928 4.417 7.085 6.348c5.26 4.71 12.144 6.106 19.21 5.859 8.89-.31 15.98-3.139 18.297-6.923.465-.756.604-1.259.732-2.455.11-1.14.683-6.743.729-7.222-.062.266-.17.53-.277.796l-.015.033" mask="url(#b)"/></g><path fill="#000" d="M46.571 20.938c-1.225 4.217-8.971 7.67-18.515 8.001-7.118.248-14.036-1.4-18.794-5.744-4.587-4.19-7.002-6.422-7.002-6.422l1.398 6.534s2.21 2.124 6.725 6.492c4.515 4.37 10.614 5.693 17.234 5.572.21.01.437.012.695.003a38.182 38.182 0 0 0 5.934-.666l.152-.03c.079-.014.155-.031.233-.048a27.592 27.592 0 0 0 4.28-1.215c4.036-1.51 6.713-3.738 7.017-6.181.015-.115.06-.53.069-.622 0 0 .564-5.561.574-5.674"/><g transform="translate(3.474 25.08)"><mask id="d" fill="#fff"><use xlink:href="#c"/></mask><path fill="#000" d="M42.108 5.647c-1.026 3.541-7.596 7.096-17.162 7.43-7.029.245-13.27-1.287-17.509-5.465C3.185 3.423.792 1.06.792 1.06l1.197 5.584s2.49 2.546 6.392 6.56c3.9 4.015 10.044 5.533 16.71 5.3 3.5-.122 6.658-.69 9.258-1.59 4.135-1.403 6.915-3.588 7.225-5.997.014-.107.053-.475.061-.554 0 0 .445-4.455.473-4.715" mask="url(#d)"/></g><path fill="#000" d="M27.245 5.793c8.593-.3 15.966 1.944 18.764 5.325 1.165-1.484 1.805-3.192 1.206-4.577C45.036 2.49 36.808-.31 27.082.028c-2.984.103-5.805.494-8.34 1.105l.502 5.714c2.434-.584 5.138-.954 8.001-1.054"/><path fill="#000" d="M27.517 12.426c5.383-.188 10.27.667 13.759 2.187.594-.27 1.194-.57 1.775-.909.683-.393 1.357-.91 1.967-1.493-3.22-2.857-9.959-4.68-17.7-4.41-2.825.099-5.496.467-7.899 1.041l.405 4.604c2.337-.56 4.958-.924 7.693-1.02m.172 5.044c.44-.017.877-.04 1.31-.068a49.082 49.082 0 0 0 1.39-.11l.206-.02c.434-.042.865-.091 1.289-.147.05-.007.1-.015.149-.02a36.669 36.669 0 0 0 1.433-.218c.275-.046.545-.095.812-.147.134-.025.27-.049.402-.075.326-.066.65-.136.967-.209.22-.05.436-.104.653-.157.113-.03.229-.058.341-.087.479-.113 1.199-.31 2.037-.587-3.12-.929-6.958-1.412-11.094-1.268-2.716.096-5.283.451-7.59 1.007l.135 1.543c4.067.713 7.234.574 7.56.562"/></g></svg>