<svg xmlns="http://www.w3.org/2000/svg" width="186" height="25" viewBox="0 0 186 25">
    <g fill="#171818" fill-rule="evenodd">
        <path d="M10.31 24.658L3.408 4.78h-.13c.185 2.953.278 5.72.278 8.303v11.575H.022V.857h5.486l6.61 18.933h.096L19.02.857h5.502v23.801h-3.744v-11.77c0-1.183.03-2.724.09-4.624.06-1.899.11-3.05.154-3.451h-.13l-7.147 19.845h-3.434M43.821 14.695l-2.23-6.48a38.949 38.949 0 0 1-.676-2.051 42.512 42.512 0 0 1-.594-2.051c-.293 1.335-.722 2.795-1.286 4.38l-2.15 6.202h6.936zm3.402 9.963l-2.376-6.609h-9.1l-2.329 6.61h-4.102L38.22.758h4.234l8.904 23.9h-4.135zM65.236 11.748h8.758v11.95a25.28 25.28 0 0 1-4.126.993 29.222 29.222 0 0 1-4.275.292c-3.603 0-6.382-1.066-8.335-3.197-1.953-2.134-2.93-5.142-2.93-9.028 0-3.831 1.1-6.83 3.305-8.995 2.203-2.166 5.237-3.248 9.1-3.248 2.485 0 4.841.477 7.065 1.433l-1.366 3.24c-1.933-.89-3.865-1.336-5.796-1.336-2.54 0-4.549.798-6.025 2.393-1.475 1.597-2.213 3.778-2.213 6.545 0 2.91.665 5.12 1.994 6.634 1.33 1.515 3.243 2.271 5.738 2.271 1.26 0 2.606-.156 4.038-.472v-6.137h-4.932v-3.338M92.74 14.695l-2.23-6.48a39.516 39.516 0 0 1-.677-2.051 43.189 43.189 0 0 1-.593-2.051c-.294 1.335-.723 2.795-1.286 4.38l-2.15 6.202h6.936zm3.402 9.963l-2.376-6.609h-9.1l-2.33 6.61h-4.102L87.14.758h4.233l8.904 23.9h-4.135zM120.714 24.658h-17.028v-2.701l11.997-17.763h-11.672V.857h16.378v2.735l-12.047 17.73h12.372v3.336M126.598 24.658h3.89V.857h-3.89zM157.603 24.658h-4.77L141.127 5.692h-.13l.081 1.058c.153 2.019.229 3.864.229 5.536v12.372h-3.533V.857h4.72l11.673 18.869h.098c-.022-.25-.064-1.159-.13-2.727a95.481 95.481 0 0 1-.097-3.672V.857h3.565v23.801M167.185 12.725c0 2.931.59 5.153 1.775 6.667 1.182 1.514 2.935 2.272 5.257 2.272 2.313 0 4.056-.75 5.235-2.248 1.177-1.498 1.766-3.728 1.766-6.691 0-2.92-.583-5.133-1.75-6.642-1.166-1.509-2.906-2.263-5.218-2.263-2.333 0-4.095.754-5.283 2.263-1.189 1.509-1.782 3.722-1.782 6.642zm18.167 0c0 3.875-.967 6.887-2.905 9.036-1.937 2.149-4.68 3.222-8.23 3.222-3.592 0-6.352-1.066-8.278-3.197-1.927-2.134-2.89-5.164-2.89-9.094 0-3.928.97-6.945 2.907-9.051 1.936-2.105 4.702-3.16 8.294-3.16 3.538 0 6.273 1.07 8.205 3.208 1.932 2.139 2.897 5.151 2.897 9.036z"/>
    </g>
</svg>
