<svg xmlns="http://www.w3.org/2000/svg" width="217" height="186" viewBox="0 0 217 186">
    <defs>
        <filter id="a" width="128.6%" height="134.1%" x="-14.3%" y="-12.2%" filterUnits="objectBoundingBox">
            <feOffset dy="4" in="SourceAlpha" result="shadowOffsetOuter1"/>
            <feGaussianBlur in="shadowOffsetOuter1" result="shadowBlurOuter1" stdDeviation="4"/>
            <feColorMatrix in="shadowBlurOuter1" result="shadowMatrixOuter1" values="0 0 0 0 0.63544324 0 0 0 0 0.630203039 0 0 0 0 0.630203039 0 0 0 0.391021286 0"/>
            <feMerge>
                <feMergeNode in="shadowMatrixOuter1"/>
                <feMergeNode in="SourceGraphic"/>
            </feMerge>
        </filter>
        <filter id="b" width="128.6%" height="134.1%" x="-14.3%" y="-12.2%" filterUnits="objectBoundingBox">
            <feOffset dy="4" in="SourceAlpha" result="shadowOffsetOuter1"/>
            <feGaussianBlur in="shadowOffsetOuter1" result="shadowBlurOuter1" stdDeviation="4"/>
            <feColorMatrix in="shadowBlurOuter1" result="shadowMatrixOuter1" values="0 0 0 0 0.423529412 0 0 0 0 0.419607843 0 0 0 0 0.419607843 0 0 0 0.358101223 0"/>
            <feMerge>
                <feMergeNode in="shadowMatrixOuter1"/>
                <feMergeNode in="SourceGraphic"/>
            </feMerge>
        </filter>
    </defs>
    <g fill="none" fill-rule="evenodd">
        <g stroke="#222" stroke-width="4" transform="translate(171 102)">
            <path stroke-linecap="round" stroke-linejoin="round" d="M44 81.6V49.151c0-10.558-4.694-16.318-11.603-18.875-.294-.114-5.955 2.313-10.397 2.313-4.106 0-9.276-2.7-9.627-2.585C5.045 32.402 0 38.19 0 49.15V81.6"/>
            <ellipse cx="22.476" cy="10.75" rx="10.476" ry="10.75"/>
        </g>
        <g stroke="#222" stroke-width="4" transform="translate(2 102)">
            <path stroke-linecap="round" stroke-linejoin="round" d="M44 81.6V49.151c0-10.558-4.694-16.318-11.603-18.875-.294-.114-5.955 2.313-10.397 2.313-4.106 0-9.276-2.7-9.627-2.585C5.045 32.402 0 38.19 0 49.15V81.6"/>
            <ellipse cx="22.476" cy="10.75" rx="10.476" ry="10.75"/>
        </g>
        <g fill="#FFFC5D" fill-rule="nonzero" filter="url(#a)" transform="translate(24 4)">
            <ellipse cx="49" cy="41" rx="49" ry="41"/>
            <path d="M24.5 75.475L2.45 82c7.35-9.354 11.025-14.983 11.025-16.887 0-1.903 3.675 1.55 11.025 10.362z"/>
        </g>
        <text fill="#000" font-family="OpenSans-Semibold, Open Sans" font-size="28" font-weight="500" letter-spacing="6" transform="translate(24 4)">
            <tspan x="27.536" y="46">…</tspan>
        </text>
        <g fill="#FFFC5D" fill-rule="nonzero" filter="url(#b)" transform="matrix(-1 0 0 1 171 20)">
            <ellipse cx="49" cy="41" rx="49" ry="41"/>
            <path d="M24.5 75.475L2.45 82c7.35-9.354 11.025-14.983 11.025-16.887 0-1.903 3.675 1.55 11.025 10.362z"/>
        </g>
        <text fill="#000" font-family="OpenSans-Semibold, Open Sans" font-size="28" font-weight="500" letter-spacing="6" transform="translate(73 20)">
            <tspan x="35.536" y="48">…</tspan>
        </text>
    </g>
</svg>
