<svg xmlns="http://www.w3.org/2000/svg" xmlns:xlink="http://www.w3.org/1999/xlink" width="72" height="72" viewBox="0 0 72 72"><defs><style>.a{fill:#fff;}.b{clip-path:url(#a);}</style><clipPath id="a"><path class="a" d="M0,12H72V-60H0Z" transform="translate(0 60)"/></clipPath></defs><g transform="translate(0 60)"><g class="b" transform="translate(0 -60)"><path class="a" d="M0,12H72V-60H0ZM0-60,12.094,5.971A6.013,6.013,0,0,1,6.08-.043a6.013,6.013,0,0,1,6.013-6.013A6.014,6.014,0,0,1,18.108-.043a6.014,6.014,0,0,1-6.014,6.014m0-24.056A6.013,6.013,0,0,1,6.08-24.1a6.013,6.013,0,0,1,6.013-6.014A6.014,6.014,0,0,1,18.108-24.1a6.014,6.014,0,0,1-6.014,6.014m0-23.987A6.013,6.013,0,0,1,6.08-48.086,6.013,6.013,0,0,1,12.094-54.1a6.014,6.014,0,0,1,6.014,6.013,6.014,6.014,0,0,1-6.014,6.014m23.8,48.043A6.014,6.014,0,0,1,29.88-.043a6.014,6.014,0,0,1,6.013-6.013A6.014,6.014,0,0,1,41.908-.043a6.014,6.014,0,0,1-6.014,6.014m0-24.056A6.014,6.014,0,0,1,29.88-24.1a6.014,6.014,0,0,1,6.013-6.014A6.014,6.014,0,0,1,41.908-24.1a6.014,6.014,0,0,1-6.014,6.014m0-23.987a6.014,6.014,0,0,1-6.013-6.014A6.014,6.014,0,0,1,35.893-54.1a6.014,6.014,0,0,1,6.014,6.013,6.014,6.014,0,0,1-6.014,6.014M59.954,5.971A6.014,6.014,0,0,1,53.94-.043a6.014,6.014,0,0,1,6.014-6.013A6.014,6.014,0,0,1,65.968-.043a6.014,6.014,0,0,1-6.013,6.014m0-24.056A6.014,6.014,0,0,1,53.94-24.1a6.014,6.014,0,0,1,6.014-6.014A6.014,6.014,0,0,1,65.968-24.1a6.014,6.014,0,0,1-6.013,6.014m0-23.987a6.014,6.014,0,0,1-6.014-6.014A6.014,6.014,0,0,1,59.954-54.1a6.014,6.014,0,0,1,6.013,6.013,6.014,6.014,0,0,1-6.013,6.014" transform="translate(0 60)"/></g></g></svg>