<svg xmlns="http://www.w3.org/2000/svg" width="72" height="71.999" viewBox="0 0 72 71.999"><defs><style>.a{fill:#fff;}</style></defs><g transform="translate(0 60)"><g transform="translate(0 -60)"><path class="a" d="M11.056,0-55.286,66.342V72h5.657L16.713,5.657V0Z" transform="translate(55.286)"/></g><g transform="translate(0 -60)"><path class="a" d="M7.3,0-36.524,43.828V55.141L18.617,0Z" transform="translate(36.524)"/></g><g transform="translate(0 -60)"><path class="a" d="M3.552,0-17.762,21.314V32.627L14.865,0Z" transform="translate(17.762)"/></g><g transform="translate(0 -60)"><path class="a" d="M0,0V10.113L10.113,0Z"/></g><g transform="translate(61.886 1.885)"><path class="a" d="M0,1.685H10.113V-8.428Z" transform="translate(0 8.428)"/></g><g transform="translate(39.372 -20.629)"><path class="a" d="M0,5.437H11.313L32.627-15.877V-27.19Z" transform="translate(0 27.19)"/></g><g transform="translate(16.857 -43.141)"><path class="a" d="M0,9.189H11.313L55.141-34.639V-45.951Z" transform="translate(0 45.951)"/></g></g></svg>