<?xml version="1.0" encoding="utf-8"?>
<!-- Generator: Adobe Illustrator 26.2.1, SVG Export Plug-In . SVG Version: 6.00 Build 0)  -->
<svg version="1.1" id="레이어_1" xmlns="http://www.w3.org/2000/svg" xmlns:xlink="http://www.w3.org/1999/xlink" x="0px"
	 y="0px" viewBox="0 0 256 256" style="enable-background:new 0 0 256 256;" xml:space="preserve">
<style type="text/css">
	.st0{fill:#15284B;}
	.st1{fill:#FFFFFF;}
</style>
<g>
	<circle class="st0" cx="128" cy="128" r="126.27"/>
	<path class="st1" d="M128.34,46.47c7.04,0,13.97,0.65,20.78,1.95c6.81,1.3,12.9,3.87,18.26,7.69c5.36,3.83,9.72,9.23,13.09,16.19
		c3.37,6.97,5.05,16.04,5.05,27.21c0,10.11-1.42,18.68-4.25,25.72c-2.83,7.04-6.62,12.79-11.37,17.22
		c-4.75,4.44-10.22,7.66-16.42,9.65c-6.2,1.99-12.6,2.99-19.18,2.99c-0.61,0-1.61,0-2.99,0c-1.38,0-2.84-0.04-4.36-0.12
		c-1.53-0.08-3.03-0.19-4.48-0.34c-1.46-0.15-2.49-0.3-3.1-0.46v55.35H90.44V46.48L128.34,46.47z M129.71,129.38
		c3.37,0,6.58-0.46,9.65-1.38c3.06-0.92,5.78-2.49,8.15-4.71c2.37-2.22,4.25-5.28,5.63-9.19c1.38-3.9,2.07-8.84,2.07-14.81
		c0-5.05-0.65-9.34-1.95-12.86c-1.3-3.52-3.06-6.32-5.28-8.38c-2.22-2.07-4.79-3.56-7.69-4.48c-2.91-0.92-5.97-1.38-9.19-1.38
		c-4.75,0-8.53,0-11.71,0l0,57.19H129.71z"/>
</g>
</svg>
